<svg xmlns="http://www.w3.org/2000/svg" version="1.1" xmlns:xlink="http://www.w3.org/1999/xlink" xmlns:svgjs="http://svgjs.dev/svgjs" width="1500" height="1500" viewBox="0 0 1500 1500"><rect width="1500" height="1500" fill="#0a83e8"></rect><g transform="matrix(0.6666666666666666,0,0,0.6666666666666666,249.39393939393943,644.9707507346536)"><svg viewBox="0 0 396 83" data-background-color="#0a83e8" preserveAspectRatio="xMidYMid meet" height="314" width="1500" xmlns="http://www.w3.org/2000/svg" xmlns:xlink="http://www.w3.org/1999/xlink"><g id="tight-bounds" transform="matrix(1,0,0,1,0.2400000000000091,0.1437628456548623)"><svg viewBox="0 0 395.52 82.71247430869026" height="82.71247430869026" width="395.52"><g><svg viewBox="0 0 549.7656942123191 114.968853302831" height="82.71247430869026" width="395.52"><g transform="matrix(1,0,0,1,154.2456942123191,0)"><svg viewBox="0 0 395.52 114.968853302831" height="114.968853302831" width="395.52"><g id="textblocktransform"><svg viewBox="0 0 395.52 114.968853302831" height="114.968853302831" width="395.52" id="textblock"><g><svg viewBox="0 0 395.52 114.968853302831" height="114.968853302831" width="395.52"><g transform="matrix(1,0,0,1,0,0)"><svg width="395.52" viewBox="2.1 -39.9 174.84 50.83" height="114.968853302831" data-palette-color="#fff6f0"><path d="M26.88-30.28L26.88-30.28 28.55-25.05Q27.08-24.53 25.19-24.31 23.3-24.1 20.88-24.1L20.88-24.1Q23.33-23.03 24.59-21.41 25.85-19.8 25.85-17.32L25.85-17.32Q25.85-14.75 24.54-12.73 23.23-10.7 20.79-9.55 18.35-8.4 15-8.4L15-8.4Q14.03-8.4 13.23-8.5 12.43-8.6 11.68-8.78L11.68-8.78Q11.2-8.5 10.93-7.99 10.65-7.48 10.65-6.93L10.65-6.93Q10.65-6.2 11.23-5.66 11.8-5.13 13.75-5.13L13.75-5.13 18.23-5.13Q21.18-5.13 23.4-4.14 25.63-3.15 26.86-1.46 28.1 0.23 28.1 2.38L28.1 2.38Q28.1 6.4 24.61 8.66 21.13 10.93 14.4 10.93L14.4 10.93Q9.58 10.93 6.9 9.94 4.23 8.95 3.16 7.09 2.1 5.23 2.1 2.58L2.1 2.58 8.1 2.58Q8.1 3.85 8.6 4.67 9.1 5.5 10.5 5.89 11.9 6.28 14.53 6.28L14.53 6.28Q17.18 6.28 18.66 5.85 20.15 5.43 20.75 4.65 21.35 3.88 21.35 2.85L21.35 2.85Q21.35 1.45 20.19 0.66 19.03-0.13 16.88-0.13L16.88-0.13 12.5-0.13Q8.47-0.13 6.63-1.69 4.78-3.25 4.78-5.33L4.78-5.33Q4.78-6.73 5.55-8.01 6.33-9.3 7.75-10.23L7.75-10.23Q5.28-11.53 4.19-13.34 3.1-15.15 3.1-17.73L3.1-17.73Q3.1-20.63 4.56-22.75 6.03-24.88 8.61-26.05 11.2-27.23 14.55-27.23L14.55-27.23Q17.63-27.2 19.79-27.6 21.95-28 23.63-28.71 25.3-29.43 26.88-30.28ZM14.68-22.75L14.68-22.75Q12.4-22.75 11.18-21.39 9.95-20.03 9.95-17.78L9.95-17.78Q9.95-15.45 11.2-14.1 12.45-12.75 14.73-12.75L14.73-12.75Q16.95-12.75 18.11-14.06 19.28-15.38 19.28-17.88L19.28-17.88Q19.28-20.33 18.11-21.54 16.95-22.75 14.68-22.75ZM35.1-26.48L49.3-26.48 49.3-4.75 56.25-4.75 56.25 0 34.85 0 34.85-4.75 42.55-4.75 42.55-21.73 35.1-21.73 35.1-26.48ZM44.97-39.9L44.97-39.9Q46.82-39.9 47.97-38.75 49.12-37.6 49.12-35.93L49.12-35.93Q49.12-34.2 47.97-33.05 46.82-31.9 44.97-31.9L44.97-31.9Q43.12-31.9 41.96-33.05 40.8-34.2 40.8-35.93L40.8-35.93Q40.8-37.6 41.96-38.75 43.12-39.9 44.97-39.9ZM84.62-5.83L86.95-1.48Q85.45-0.53 83.33 0.13 81.22 0.78 78.75 0.78L78.75 0.78Q73.84 0.78 71.4-1.76 68.95-4.3 68.95-8.53L68.95-8.53 68.95-21.7 63.22-21.7 63.22-26.48 68.95-26.48 68.95-32.3 75.7-33.1 75.7-26.48 84.4-26.48 83.72-21.7 75.7-21.7 75.7-8.55Q75.7-6.5 76.67-5.56 77.65-4.63 79.84-4.63L79.84-4.63Q81.27-4.63 82.46-4.96 83.65-5.3 84.62-5.83L84.62-5.83ZM110.44-37.77L110.44-37.77Q113.12-37.77 115.18-37.34 117.24-36.9 118.94-36.18L118.94-36.18 117.02-31.65Q115.67-32.2 114.23-32.45 112.79-32.7 111.34-32.7L111.34-32.7Q108.84-32.7 107.72-31.78 106.59-30.85 106.59-28.8L106.59-28.8 106.59-24.7 115.34-24.7 114.59-19.9 106.59-19.9 106.59 0 99.89 0 99.89-19.9 94.09-19.9 94.09-24.7 99.89-24.7 99.89-28.98Q99.89-31.55 101.14-33.52 102.39-35.5 104.76-36.64 107.12-37.77 110.44-37.77ZM125.09-26.48L139.29-26.48 139.29-4.75 146.24-4.75 146.24 0 124.84 0 124.84-4.75 132.54-4.75 132.54-21.73 125.09-21.73 125.09-26.48ZM134.97-39.9L134.97-39.9Q136.81-39.9 137.97-38.75 139.12-37.6 139.12-35.93L139.12-35.93Q139.12-34.2 137.97-33.05 136.81-31.9 134.97-31.9L134.97-31.9Q133.12-31.9 131.95-33.05 130.79-34.2 130.79-35.93L130.79-35.93Q130.79-37.6 131.95-38.75 133.12-39.9 134.97-39.9ZM174.61-5.83L176.94-1.48Q175.44-0.53 173.33 0.13 171.21 0.78 168.74 0.78L168.74 0.78Q163.84 0.78 161.39-1.76 158.94-4.3 158.94-8.53L158.94-8.53 158.94-21.7 153.21-21.7 153.21-26.48 158.94-26.48 158.94-32.3 165.69-33.1 165.69-26.48 174.39-26.48 173.71-21.7 165.69-21.7 165.69-8.55Q165.69-6.5 166.66-5.56 167.64-4.63 169.84-4.63L169.84-4.63Q171.26-4.63 172.45-4.96 173.64-5.3 174.61-5.83L174.61-5.83Z" opacity="1" transform="matrix(1,0,0,1,0,0)" fill="#fff6f0" class="wordmark-text-0" data-fill-palette-color="primary" id="text-0"></path></svg></g></svg></g></svg></g></svg></g><g transform="matrix(1,0,0,1,0,26.88524158474883)"><svg viewBox="0 0 127.1043072 61.198370133333334" height="61.198370133333334" width="127.1043072"><g><svg xmlns:x="http://ns.adobe.com/Extensibility/1.0/" xmlns:i="http://ns.adobe.com/AdobeIllustrator/10.0/" xmlns:graph="http://ns.adobe.com/Graphs/1.0/" xmlns="http://www.w3.org/2000/svg" xmlns:xlink="http://www.w3.org/1999/xlink" version="1.1" x="0" y="0" viewBox="5 19 54 26" enable-background="new 0 0 64 64" xml:space="preserve" height="61.198370133333334" width="127.1043072" class="icon-icon-0" data-fill-palette-color="accent" id="icon-0"><g fill="#86eaaa" data-fill-palette-color="accent"><path d="M58 27h-3v-7c0-0.552-0.447-1-1-1h-4c-0.553 0-1 0.448-1 1v9H15v-9c0-0.552-0.448-1-1-1h-4c-0.552 0-1 0.448-1 1v7H6c-0.552 0-1 0.448-1 1v8c0 0.553 0.448 1 1 1h3v7c0 0.553 0.448 1 1 1h4c0.552 0 1-0.447 1-1v-9h34v9c0 0.553 0.447 1 1 1h4c0.553 0 1-0.447 1-1v-7h3c0.553 0 1-0.447 1-1v-8C59 27.448 58.553 27 58 27z" fill="#86eaaa" data-fill-palette-color="accent"></path></g></svg><g></g></g></svg></g></svg></g><defs></defs></svg><rect width="395.52" height="82.71247430869026" fill="none" stroke="none" visibility="hidden"></rect></g></svg></g></svg>