<svg xmlns="http://www.w3.org/2000/svg" version="1.1" xmlns:xlink="http://www.w3.org/1999/xlink" xmlns:svgjs="http://svgjs.dev/svgjs" width="128" height="128" viewBox="0 0 128 128"><g transform="matrix(0.8046875,0,0,0.8046875,12.760752631578946,39.44226989923007)"><svg viewBox="0 0 95 46" data-background-color="#0a83e8" preserveAspectRatio="xMidYMid meet" height="61" width="128" xmlns="http://www.w3.org/2000/svg" xmlns:xlink="http://www.w3.org/1999/xlink"><g id="tight-bounds" transform="matrix(1,0,0,1,-0.24049999999999727,0.013833333333337805)"><svg viewBox="0 0 95.481 45.97233333333333" height="45.97233333333333" width="95.481"><g><svg viewBox="0 0 95.481 45.97233333333333" height="45.97233333333333" width="95.481"><g><svg viewBox="0 0 95.481 45.97233333333333" height="45.97233333333333" width="95.481"><g id="textblocktransform"><svg viewBox="0 0 95.481 45.97233333333333" height="45.97233333333333" width="95.481" id="textblock"><g><svg viewBox="0 0 95.481 45.97233333333333" height="45.97233333333333" width="95.481"><g><svg viewBox="0 0 95.481 45.97233333333333" height="45.97233333333333" width="95.481"><g><svg xmlns:x="http://ns.adobe.com/Extensibility/1.0/" xmlns:i="http://ns.adobe.com/AdobeIllustrator/10.0/" xmlns:graph="http://ns.adobe.com/Graphs/1.0/" xmlns="http://www.w3.org/2000/svg" xmlns:xlink="http://www.w3.org/1999/xlink" version="1.1" x="0" y="0" viewBox="5 19 54 26" enable-background="new 0 0 64 64" xml:space="preserve" height="45.97233333333333" width="95.481" class="icon-icon-0" data-fill-palette-color="accent" id="icon-0"><g fill="#86eaaa" data-fill-palette-color="accent"><path d="M58 27h-3v-7c0-0.552-0.447-1-1-1h-4c-0.553 0-1 0.448-1 1v9H15v-9c0-0.552-0.448-1-1-1h-4c-0.552 0-1 0.448-1 1v7H6c-0.552 0-1 0.448-1 1v8c0 0.553 0.448 1 1 1h3v7c0 0.553 0.448 1 1 1h4c0.552 0 1-0.447 1-1v-9h34v9c0 0.553 0.447 1 1 1h4c0.553 0 1-0.447 1-1v-7h3c0.553 0 1-0.447 1-1v-8C59 27.448 58.553 27 58 27z" fill="#000000" data-fill-palette-color="accent"></path></g></svg><g></g></g></svg></g></svg></g></svg></g></svg></g></svg></g><defs></defs></svg><rect width="95.481" height="45.97233333333333" fill="none" stroke="none" visibility="hidden"></rect></g></svg></g></svg>